<?xml version="1.0" standalone="no"?><!DOCTYPE svg PUBLIC "-//W3C//DTD SVG 1.1//EN" "http://www.w3.org/Graphics/SVG/1.1/DTD/svg11.dtd"><svg t="1623805921772" class="icon" viewBox="0 0 1024 1024" version="1.1" xmlns="http://www.w3.org/2000/svg" p-id="4261" xmlns:xlink="http://www.w3.org/1999/xlink" width="32" height="32"><defs><style type="text/css"></style></defs><path d="M748.158893 8.002522L741.118926 0.00256H180.801552A84.159606 84.159606 0 0 0 96.00195 84.802162v854.075997A84.159606 84.159606 0 0 0 179.20156 1023.99776h663.996888A84.159606 84.159606 0 0 0 927.99805 940.478152V192.00166z m-2.239989 362.878299a206.399033 206.399033 0 0 0-8.63996 27.199873l-88.319586 268.158743a92.159568 92.159568 0 0 1-11.839944 22.079897 23.679889 23.679889 0 0 1-18.559913 6.719968 29.759861 29.759861 0 0 1-22.079897-8.639959 42.879799 42.879799 0 0 1-10.239952-22.079897L512 418.560598 443.520321 639.99956a290.558638 290.558638 0 0 1-15.359928 39.039817 23.679889 23.679889 0 0 1-23.679889 15.359928 22.399895 22.399895 0 0 1-16.959921-6.719968 63.9997 63.9997 0 0 1-13.439937-22.079897l-88.319586-267.518746a185.279132 185.279132 0 0 0-8.639959-25.59988 37.119826 37.119826 0 0 1-3.199985-22.079897 17.919916 17.919916 0 0 1 5.119976-13.439937 28.159868 28.159868 0 0 1 44.159793 18.559913l81.599617 259.518784 79.679627-255.9988a55.999738 55.999738 0 0 1 10.239952-20.479904 21.759898 21.759898 0 0 1 15.039929-6.719969 16.639922 16.639922 0 0 1 15.359929 6.719969 39.039817 39.039817 0 0 1 10.239952 20.479904l81.599617 255.9988 83.19961-259.518784c5.119976-16.959921 13.439937-25.59988 27.199873-25.59988a27.83987 27.83987 0 0 1 18.559913 5.119976 19.519909 19.519909 0 0 1 5.119976 13.439937 76.159643 76.159643 0 0 1-5.119976 22.399895z" fill="#4D97FF" p-id="4262"></path><path d="M741.118926 0.00256h-3.519983v135.999362A53.119751 53.119751 0 0 0 788.798703 192.00166H927.99805z" fill="#A6CBFF" p-id="4263"></path></svg>