<?xml version="1.0" standalone="no"?><!DOCTYPE svg PUBLIC "-//W3C//DTD SVG 1.1//EN" "http://www.w3.org/Graphics/SVG/1.1/DTD/svg11.dtd"><svg t="1623805949096" class="icon" viewBox="0 0 1024 1024" version="1.1" xmlns="http://www.w3.org/2000/svg" p-id="4975" xmlns:xlink="http://www.w3.org/1999/xlink" width="32" height="32"><defs><style type="text/css"></style></defs><path d="M748.158893 8.002522L741.118926 0.00256H180.801552A84.159606 84.159606 0 0 0 96.00195 84.802162v853.755999A84.479604 84.479604 0 0 0 179.20156 1023.99776h663.996888A84.159606 84.159606 0 0 0 927.99805 940.478152V192.00166z m-383.9982 277.118701a91.519571 91.519571 0 1 1-91.519571 91.519571 90.239577 90.239577 0 0 1 88.959583-91.519571z m387.838182 447.997901a9.279957 9.279957 0 0 1-8.319961 5.119976H290.241039a12.79994 12.79994 0 0 1-10.239952-5.119976 14.399933 14.399933 0 0 1 0-11.519946l98.23954-143.03933a9.919954 9.919954 0 0 1 9.919953-4.799977 9.599955 9.599955 0 0 1 8.319961 4.799977l46.719781 74.879649 154.879275-252.798815a11.519946 11.519946 0 0 1 9.919953-4.799978 13.439937 13.439937 0 0 1 9.919954 6.719969l133.119376 319.9985a13.439937 13.439937 0 0 1 0 11.199948z" fill="#FF6668" p-id="4976"></path><path d="M741.118926 0.00256h-3.519983v135.679364A52.799753 52.799753 0 0 0 788.798703 192.00166H927.99805z" fill="#FFB3B4" p-id="4977"></path></svg>