<?xml version="1.0" standalone="no"?><!DOCTYPE svg PUBLIC "-//W3C//DTD SVG 1.1//EN" "http://www.w3.org/Graphics/SVG/1.1/DTD/svg11.dtd"><svg t="1623805926203" class="icon" viewBox="0 0 1024 1024" version="1.1" xmlns="http://www.w3.org/2000/svg" p-id="4404" xmlns:xlink="http://www.w3.org/1999/xlink" width="32" height="32"><defs><style type="text/css"></style></defs><path d="M748.158155 8.005377L741.11821 0.00544H180.802587A83.839345 83.839345 0 0 0 96.00325 84.804777v853.753331A84.47934 84.47934 0 0 0 179.2026 1023.99744h663.994813A84.159343 84.159343 0 0 0 927.99675 940.478093V192.00394z m-31.99975 451.83647a51.519598 51.519598 0 0 1-8.319935 19.839845c-3.199975 5.11996-6.719948 8.319935-9.919922 6.719948s-5.11996-21.75983-6.719948-24.959805a70.079453 70.079453 0 0 1-5.11996-18.239858 40.319685 40.319685 0 0 0-14.719885-30.079765 87.999313 87.999313 0 0 0-35.199725-14.719885 113.279115 113.279115 0 0 1-44.79965-20.159842 221.758268 221.758268 0 0 1-36.479715-28.15978c-8.319935-8.319935-15.039883-9.919923-18.239857-8.319935a11.199913 11.199913 0 0 0-6.719948 11.51991v309.437582a95.99925 95.99925 0 0 1-5.11996 28.15978 77.759393 77.759393 0 0 1-13.119898 29.759768 95.99925 95.99925 0 0 1-34.879727 23.359818 171.838658 171.838658 0 0 1-53.439583 11.51991 120.639058 120.639058 0 0 1-59.839532-11.51991 122.239045 122.239045 0 0 1-41.599675-31.99975 68.159468 68.159468 0 0 1-15.039883-43.199663 58.87954 58.87954 0 0 1 21.75983-43.199663 107.839158 107.839158 0 0 1 44.79965-28.15978 153.918798 153.918798 0 0 1 46.399638-8.319935 235.51816 235.51816 0 0 1 49.91961 3.199975l26.87979 6.719948V305.283055a38.3997 38.3997 0 0 1 8.319935-24.959805 35.199725 35.199725 0 0 1 21.439833-11.839908 21.439833 21.439833 0 0 1 20.159842 5.11996c4.799963 3.199975 0 9.919923 6.39995 16.63987s11.839908 15.039883 20.159843 24.959805a120.639058 120.639058 0 0 0 31.99975 26.559793c11.51991 8.319935 21.439833 13.119898 29.759767 18.239857s16.63987 6.719948 23.359818 9.919923a141.438895 141.438895 0 0 1 21.75983 11.51991 148.47884 148.47884 0 0 1 23.03982 21.75983 56.31956 56.31956 0 0 1 15.039882 28.15978 164.478715 164.478715 0 0 1-1.599987 28.15978z" fill="#00BECA" p-id="4405"></path><path d="M741.11821 0.00544h-3.519972v135.67894A53.119585 53.119585 0 0 0 788.797838 192.00394H927.99675z" fill="#80DFE5" p-id="4406"></path></svg>