<?xml version="1.0" standalone="no"?><!DOCTYPE svg PUBLIC "-//W3C//DTD SVG 1.1//EN" "http://www.w3.org/Graphics/SVG/1.1/DTD/svg11.dtd"><svg t="1623805957304" class="icon" viewBox="0 0 1024 1024" version="1.1" xmlns="http://www.w3.org/2000/svg" p-id="5261" xmlns:xlink="http://www.w3.org/1999/xlink" width="32" height="32"><defs><style type="text/css"></style></defs><path d="M748.158819 8.00252L741.118854 0.00256H180.801656A84.159579 84.159579 0 0 0 96.00208 84.802136v854.07573A84.159579 84.159579 0 0 0 179.201664 1023.99744h663.676682A84.479578 84.479578 0 0 0 927.99792 940.477858V192.0016z m-191.99904 584.317078a123.519382 123.519382 0 0 1-247.038765 0v-159.9992a123.519382 123.519382 0 0 1 123.199384-123.519382 124.799376 124.799376 0 0 1 68.479658 20.799896 136.639317 136.639317 0 0 0-31.99984 41.91979h-90.239549a21.759891 21.759891 0 0 0-21.759891 21.759892v31.99984a21.759891 21.759891 0 0 0 21.759891 21.759891h15.679922v186.879065a21.759891 21.759891 0 0 0 21.759891 21.759892h31.99984a21.759891 21.759891 0 0 0 21.439893-21.759892v-202.558987a123.519382 123.519382 0 1 1 247.038765 0v159.9992a123.519382 123.519382 0 0 1-191.99904 103.039485 140.479298 140.479298 0 0 0 31.99984-41.91979h89.279553a22.07989 22.07989 0 0 0 21.759891-21.759892v-31.99984a21.759891 21.759891 0 0 0-21.759891-21.439892h-15.679921v-185.279074a21.439893 21.439893 0 0 0-21.759892-21.759891H575.99968a21.439893 21.439893 0 0 0-21.759891 21.759891z" fill="#DCDCDC" p-id="5262"></path><path d="M741.118854 0.00256h-3.519982v135.679322A53.119734 53.119734 0 0 0 788.798616 192.0016H927.99792z" fill="#EEEEEE" p-id="5263"></path></svg>