<?xml version="1.0" standalone="no"?><!DOCTYPE svg PUBLIC "-//W3C//DTD SVG 1.1//EN" "http://www.w3.org/Graphics/SVG/1.1/DTD/svg11.dtd"><svg t="1623805721587" class="icon" viewBox="0 0 1024 1024" version="1.1" xmlns="http://www.w3.org/2000/svg" p-id="3831" xmlns:xlink="http://www.w3.org/1999/xlink" width="32" height="32"><defs><style type="text/css"></style></defs><path d="M748.158893 8.002522L741.118926 0.00256H180.801552A84.159606 84.159606 0 0 0 96.00195 84.802162v854.075997A84.159606 84.159606 0 0 0 179.20156 1023.99776h663.996888A84.159606 84.159606 0 0 0 927.99805 940.478152V192.00166z m14.079934 581.117277c0 47.359778-45.759786 47.359778-69.439674 47.359778a171.199198 171.199198 0 0 1-103.039517-42.239802 940.155593 940.155593 0 0 0-165.759224 52.159755c-42.239802 76.159643-82.879612 115.19946-118.399445 115.19946a40.319811 40.319811 0 0 1-20.159905-5.119976 39.999813 39.999813 0 0 1-23.679889-37.119826c0-11.839945 3.199985-47.359778 135.039367-104.959508a888.635835 888.635835 0 0 0 72.959658-172.479192c-16.959921-33.919841-52.479754-114.879462-27.199873-157.119263a43.199798 43.199798 0 0 1 42.239802-22.079897 43.519796 43.519796 0 0 1 35.519834 18.559913c18.559913 25.279882 16.959921 77.759636-6.719968 155.519271a391.998163 391.998163 0 0 0 86.399595 111.679477 511.9976 511.9976 0 0 1 87.999587-10.239952c65.599693 3.519984 75.839645 33.919841 74.239652 50.879762z" fill="#FF5B5A" p-id="3832"></path><path d="M740.798928 0.00256h-3.199985v135.679364A53.119751 53.119751 0 0 0 788.798703 192.00166H927.99805z" fill="#FFADAD" p-id="3833"></path></svg>