<?xml version="1.0" standalone="no"?><!DOCTYPE svg PUBLIC "-//W3C//DTD SVG 1.1//EN" "http://www.w3.org/Graphics/SVG/1.1/DTD/svg11.dtd"><svg t="1623805912847" class="icon" viewBox="0 0 1024 1024" version="1.1" xmlns="http://www.w3.org/2000/svg" p-id="3974" xmlns:xlink="http://www.w3.org/1999/xlink" width="32" height="32"><defs><style type="text/css"></style></defs><path d="M748.158893 8.002522L741.118926 0.00256H180.801552A84.159606 84.159606 0 0 0 96.00195 84.802162v853.755999A84.479604 84.479604 0 0 0 179.20156 1023.99776h663.996888A84.159606 84.159606 0 0 0 927.99805 940.478152V192.00166zM508.480016 556.79995H428.80039v135.679364a21.119901 21.119901 0 0 1-22.079897 23.999888 20.479904 20.479904 0 0 1-18.559913-7.039967 26.559876 26.559876 0 0 1-5.119976-16.959921V334.720991c0-11.839945 0-18.559913 6.719969-22.079897a46.719781 46.719781 0 0 1 26.239877-5.119976h95.99955a136.63936 136.63936 0 0 1 98.23954 31.99985 119.359441 119.359441 0 0 1 31.99985 93.119564c-2.23999 81.919616-47.03978 124.159418-133.759374 124.159418z" fill="#FF9843" p-id="3975"></path><path d="M508.480016 348.160928H428.80039v167.999212h79.679626a84.799603 84.799603 0 0 0 63.999701-20.159905 88.959583 88.959583 0 0 0 18.559913-63.9997 72.63966 72.63966 0 0 0-60.159718-83.19961 69.439675 69.439675 0 0 0-23.039893 0z" fill="#FF9843" p-id="3976"></path><path d="M741.118926 0.00256h-3.519983v135.679364A53.119751 53.119751 0 0 0 788.798703 192.00166H927.99805z" fill="#FFCCA1" p-id="3977"></path></svg>