<?xml version="1.0" standalone="no"?><!DOCTYPE svg PUBLIC "-//W3C//DTD SVG 1.1//EN" "http://www.w3.org/Graphics/SVG/1.1/DTD/svg11.dtd"><svg t="1623805945306" class="icon" viewBox="0 0 1024 1024" version="1.1" xmlns="http://www.w3.org/2000/svg" p-id="4832" xmlns:xlink="http://www.w3.org/1999/xlink" width="32" height="32"><defs><style type="text/css"></style></defs><path d="M748.158893 8.002522L741.118926 0.00256H180.801552A84.159606 84.159606 0 0 0 96.00195 84.802162v854.075997A84.159606 84.159606 0 0 0 179.20156 1023.99776h663.996888A84.159606 84.159606 0 0 0 927.99805 940.478152V192.00166z m-61.439712 367.678277H543.99985V671.99941a24.959883 24.959883 0 1 1-49.919766 0v-297.598605h-156.799265a24.639885 24.639885 0 0 1-24.959883-22.399895 25.279882 25.279882 0 0 1 24.639884-25.279882h349.758361a24.959883 24.959883 0 0 1 24.959883 24.959883 24.639885 24.639885 0 0 1-24.639884 24.959883z" fill="#91A7B9" p-id="4833"></path><path d="M741.118926 0.00256h-3.519983v135.679364A53.119751 53.119751 0 0 0 788.798703 192.00166H927.99805z" fill="#C8D3DC" p-id="4834"></path></svg>