<?xml version="1.0" standalone="no"?><!DOCTYPE svg PUBLIC "-//W3C//DTD SVG 1.1//EN" "http://www.w3.org/Graphics/SVG/1.1/DTD/svg11.dtd"><svg t="1623805953660" class="icon" viewBox="0 0 1024 1024" version="1.1" xmlns="http://www.w3.org/2000/svg" p-id="5118" xmlns:xlink="http://www.w3.org/1999/xlink" width="32" height="32"><defs><style type="text/css"></style></defs><path d="M748.158893 8.002522L741.118926 0.00256H180.801552A84.159606 84.159606 0 0 0 96.00195 84.802162v854.075997A84.159606 84.159606 0 0 0 179.20156 1023.99776h663.996888A84.159606 84.159606 0 0 0 927.99805 940.478152V192.00166z m5.119976 591.997226a25.279882 25.279882 0 0 1-25.279881 25.279881 26.879874 26.879874 0 0 1-13.119939-3.519983l-86.399595-53.43975v13.439937a63.9997 63.9997 0 0 1-63.9997 63.9997h-230.718919a63.9997 63.9997 0 0 1-63.9997-63.9997v-139.519346a63.9997 63.9997 0 0 1 63.9997-63.9997h231.358916a63.9997 63.9997 0 0 1 63.9997 63.9997v31.99985l86.399595-53.119751a25.279882 25.279882 0 0 1 38.39982 21.759898z" fill="#8283F2" p-id="5119"></path><path d="M740.798928 0.00256h-3.199985v135.679364A53.119751 53.119751 0 0 0 788.798703 192.00166H927.99805z" fill="#C1C1F9" p-id="5120"></path></svg>