<?xml version="1.0" standalone="no"?><!DOCTYPE svg PUBLIC "-//W3C//DTD SVG 1.1//EN" "http://www.w3.org/Graphics/SVG/1.1/DTD/svg11.dtd"><svg t="1623805917831" class="icon" viewBox="0 0 1024 1024" version="1.1" xmlns="http://www.w3.org/2000/svg" p-id="4118" xmlns:xlink="http://www.w3.org/1999/xlink" width="32" height="32"><defs><style type="text/css"></style></defs><path d="M748.158893 8.002522L741.118926 0.00256H180.801552A84.159606 84.159606 0 0 0 96.00195 84.802162v854.075997A84.159606 84.159606 0 0 0 179.20156 1023.99776h663.996888A84.159606 84.159606 0 0 0 927.99805 940.478152V192.00166z m-56.319736 648.316962a24.959883 24.959883 0 0 1-35.519833 35.519833L512 547.519994l-144.319324 144.319323a24.959883 24.959883 0 0 1-35.519833-35.519833L476.480166 512.00016l-144.319323-144.319324a24.959883 24.959883 0 0 1 35.519833-35.519833L512 476.480326l144.319324-144.319323a24.959883 24.959883 0 0 1 35.519833 35.519833L547.519834 512.00016z" fill="#58C012" p-id="4119"></path><path d="M740.798928 0.00256h-3.199985v135.679364A53.119751 53.119751 0 0 0 788.798703 192.00166H927.99805z" fill="#ACE089" p-id="4120"></path></svg>