<?xml version="1.0" standalone="no"?><!DOCTYPE svg PUBLIC "-//W3C//DTD SVG 1.1//EN" "http://www.w3.org/Graphics/SVG/1.1/DTD/svg11.dtd"><svg t="1623805930102" class="icon" viewBox="0 0 1024 1024" version="1.1" xmlns="http://www.w3.org/2000/svg" p-id="4547" xmlns:xlink="http://www.w3.org/1999/xlink" width="32" height="32"><defs><style type="text/css"></style></defs><path d="M861.430827 0.026879h-239.673708a7.679798 7.679798 0 0 1 8.319781 7.679799V25.626207a7.99979 7.99979 0 0 1-7.359806 8.639774h-80.957875a7.99979 7.99979 0 0 1-8.319782-7.679799V8.666653A7.99979 7.99979 0 0 1 540.799244 0.026879H162.569173A67.518228 67.518228 0 0 0 96.01092 68.18509v887.656699A67.518228 67.518228 0 0 0 162.569173 1024h698.861654A67.518228 67.518228 0 0 0 927.98908 955.841789V68.18509A67.518228 67.518228 0 0 0 861.430827 0.026879zM397.123016 76.824863a7.99979 7.99979 0 0 1 7.359806-8.639773h80.957875a7.99979 7.99979 0 0 1 8.319782 7.679799v17.919529a7.99979 7.99979 0 0 1-7.359807 8.639773h-80.957875a7.99979 7.99979 0 0 1-8.319781-6.399832v-19.199496z m0 102.397312a7.99979 7.99979 0 0 1 7.359806-8.639773h80.957875a7.99979 7.99979 0 0 1 8.319782 7.679799v17.919529a7.99979 7.99979 0 0 1-7.359807 8.639773h-80.957875a7.99979 7.99979 0 0 1-8.319781-7.359806V179.222175z m0 119.356867a7.99979 7.99979 0 0 1 7.359806-8.319781h80.957875a7.679798 7.679798 0 0 1 8.319782 7.359806v18.239522a7.99979 7.99979 0 0 1-7.359807 8.319781h-80.957875a7.99979 7.99979 0 0 1-8.319781-7.359806v-18.239522zM630.0769 512.01344a116.476942 116.476942 0 1 1-232.953884 5.439857v-124.796724h232.953884z m0-264.633054c0 5.119866-1.599958 8.639773-4.799874 8.639773h-86.397732c-3.199916 0-5.119866-3.519908-5.119865-8.639773V230.420831c0-5.119866 1.599958-8.639773 5.119865-8.639773h86.397732c3.199916 0 4.799874 3.519908 4.799874 8.639773z m0-119.356867a7.99979 7.99979 0 0 1-7.359806 8.639774h-80.957875a7.99979 7.99979 0 0 1-8.319782-8.639774v-16.959554a7.99979 7.99979 0 0 1 7.359807-8.639774h80.957875a7.679798 7.679798 0 0 1 8.319781 7.679799V128.023519z" fill="#FD8D59" p-id="4548"></path></svg>